<svg width="512" height="512" xmlns="http://www.w3.org/2000/svg">

 <g>
  <title>background</title>
  <rect fill="none" id="canvas_background" height="402" width="582" y="-1" x="-1"/>
 </g>
 <g>
  <title>Layer 1</title>
  <path id="svg_2" fill="#ccdad7" d="m256,512c-68.4,0 -132.7,-26.6 -181,-75s-75,-112.6 -75,-181s26.6,-132.7 75,-181s112.6,-75 181,-75c48.5,0 95.7,13.6 136.6,39.4c28.7,18.1 53.3,41.6 72.7,69.1l0,-84.1c0,-5.8 4.7,-10.5 10.5,-10.5c5.8,0 10.5,4.7 10.5,10.5l0,122.3c0,4.9 -3.4,9.1 -8.1,10.3c-4.8,1.1 -9.7,-1.2 -11.9,-5.6c-40,-80.4 -120.6,-130.3 -210.3,-130.3c-129.5,0 -234.9,105.4 -234.9,234.9c0,129.5 105.4,234.9 234.9,234.9c129.5,0 234.9,-105.4 234.9,-234.9c0,-5.8 4.7,-10.5 10.5,-10.5c5.8,0 10.5,4.7 10.5,10.5c0,68.4 -26.6,132.7 -75,181s-112.5,75 -180.9,75z"/>
  <path id="svg_3" fill="#ccdad7" d="m474.8,158.2l-117.3,0c-5.8,0 -10.5,-4.7 -10.5,-10.5s4.7,-10.5 10.5,-10.5l117.3,0c5.8,0 10.5,4.7 10.5,10.5s-4.7,10.5 -10.5,10.5z"/>
 </g>
</svg>